<svg width="51" height="51" viewBox="0 0 51 51" fill="none" xmlns="http://www.w3.org/2000/svg">
<path d="M15.5336 28.7913L15.5335 28.7913C15.1681 28.9594 14.7487 28.9863 14.3642 28.8683C13.9791 28.7502 13.6481 28.4923 13.4551 28.1373C13.2611 27.7803 13.2279 27.3622 13.3665 26.9796C13.5045 26.5989 13.796 26.2971 14.1622 26.1287L18.4229 24.1687C18.6584 24.0603 18.9179 24.01 19.1772 24.0207C19.4365 24.0314 19.6908 24.103 19.9161 24.2312C20.1416 24.3594 20.3326 24.5414 20.467 24.7635C20.6017 24.986 20.6741 25.2398 20.6739 25.5004M15.5336 28.7913L20.1739 41.18C20.1739 41.4399 20.0617 41.6892 19.8619 41.873C19.6622 42.0568 19.3912 42.16 19.1087 42.16C18.8262 42.16 18.5552 42.0568 18.3555 41.873C18.1557 41.6892 18.0435 41.4399 18.0435 41.18V27.6356L17.5435 27.8658M15.5336 28.7913L17.5435 27.8658M15.5336 28.7913L17.5435 27.3154V27.8658M20.6739 25.5004L20.1739 25.5H20.6739V25.5004ZM20.6739 25.5004V41.18C20.6739 41.5866 20.498 41.9672 20.2004 42.2409C19.9043 42.5134 19.511 42.66 19.1087 42.66C18.7064 42.66 18.3131 42.5134 18.0169 42.2409C17.7194 41.9672 17.5435 41.5866 17.5435 41.18V27.8658M26.7783 40.592L26.3907 40.2761L34.055 30.8754L34.0569 30.873C34.4057 30.4506 34.589 29.9406 34.587 29.422L34.5869 29.4194C34.5876 28.8929 34.3995 28.3756 34.0434 27.9482C33.6867 27.52 33.1803 27.2057 32.5985 27.0623C32.0166 26.9189 31.3993 26.9567 30.8447 27.1684C30.2904 27.38 29.8361 27.7509 29.5456 28.2152L29.5396 28.2249L29.5331 28.2342C29.3101 28.5569 28.9681 28.7778 28.5861 28.8639C28.2045 28.9499 27.8002 28.8978 27.4549 28.7142C27.1088 28.5301 26.8413 28.2233 26.7229 27.8477C26.604 27.4705 26.6491 27.066 26.8443 26.7229L26.8496 26.7134L26.8554 26.7042C27.5025 25.6732 28.496 24.8752 29.6752 24.4259C30.8541 23.9767 32.1589 23.8984 33.3895 24.2017C34.6202 24.5051 35.7154 25.1754 36.5007 26.1169C37.2865 27.0591 37.7171 28.2196 37.7174 29.419M26.7783 40.592L37.7174 29.42C37.7174 29.4197 37.7174 29.4193 37.7174 29.419M26.7783 40.592L26.3907 40.2761C26.2119 40.4954 26.0996 40.7608 26.0719 41.0432C26.0442 41.3258 26.103 41.608 26.2384 41.857C26.3734 42.1055 26.5777 42.3087 26.8233 42.4483C27.0686 42.5878 27.3479 42.66 27.6304 42.66H36.1522C36.5545 42.66 36.9478 42.5134 37.2439 42.2409C37.5414 41.9672 37.7174 41.5866 37.7174 41.18C37.7174 40.7734 37.5414 40.3928 37.2439 40.1191C36.9478 39.8466 36.5545 39.7 36.1522 39.7H30.8136M26.7783 40.592L30.8136 39.7M37.7174 29.419C37.7217 30.5996 37.305 31.7438 36.5392 32.6765M37.7174 29.419C37.7174 29.4187 37.7174 29.4184 37.7174 29.4181L36.5392 32.6765M36.5392 32.6765C36.539 32.6768 36.5388 32.6771 36.5386 32.6773L30.8136 39.7M36.5392 32.6765L30.8136 39.7M46.8043 4.42H39.8478V1.98C39.8478 1.57339 39.6719 1.19279 39.3744 0.91907C39.0782 0.646639 38.6849 0.5 38.2826 0.5C37.8803 0.5 37.487 0.646639 37.1909 0.91907C36.8933 1.19279 36.7174 1.57339 36.7174 1.98V4.42H14.2826V1.98C14.2826 1.57339 14.1067 1.19279 13.8091 0.91907C13.513 0.646639 13.1197 0.5 12.7174 0.5C12.3151 0.5 11.9218 0.646639 11.6256 0.91907C11.3281 1.19279 11.1522 1.57339 11.1522 1.98V4.42H4.19565C3.22834 4.42 2.29311 4.77314 1.59746 5.41314C0.900403 6.05443 0.5 6.93357 0.5 7.86V47.06C0.5 47.9864 0.900403 48.8656 1.59746 49.5069C2.29311 50.1469 3.22833 50.5 4.19565 50.5H46.8043C47.7717 50.5 48.7069 50.1469 49.4025 49.5069C50.0996 48.8656 50.5 47.9864 50.5 47.06V7.86C50.5 6.93356 50.0996 6.05443 49.4025 5.41314C48.7069 4.77314 47.7717 4.42 46.8043 4.42ZM4.19565 7.38H11.1522V9.82C11.1522 10.2266 11.3281 10.6072 11.6256 10.8809C11.9218 11.1534 12.3151 11.3 12.7174 11.3C13.1197 11.3 13.513 11.1534 13.8091 10.8809C14.1067 10.6072 14.2826 10.2266 14.2826 9.82V7.38H36.7174V9.82C36.7174 10.2266 36.8933 10.6072 37.1909 10.8809C37.487 11.1534 37.8803 11.3 38.2826 11.3C38.6849 11.3 39.0782 11.1534 39.3744 10.8809C39.6719 10.6072 39.8478 10.2266 39.8478 9.82V7.38H46.8043C46.9671 7.38 47.1156 7.43986 47.219 7.535C47.3211 7.62885 47.3696 7.74679 47.3696 7.86V16.18H3.63043V7.86C3.63043 7.74679 3.67894 7.62886 3.78096 7.535C3.88437 7.43986 4.03292 7.38 4.19565 7.38ZM46.8043 47.54H4.19565C4.03292 47.54 3.88437 47.4801 3.78096 47.385C3.67894 47.2911 3.63043 47.1732 3.63043 47.06V19.14H47.3696V47.06C47.3696 47.1732 47.3211 47.2911 47.219 47.385C47.1156 47.4801 46.9671 47.54 46.8043 47.54Z" fill="white" stroke="white"/>
</svg>
