<svg width="44" height="44" viewBox="0 0 44 44" fill="none" xmlns="http://www.w3.org/2000/svg">
<path d="M22 7.33334C23.9449 7.33334 25.8102 8.10596 27.1855 9.48123C28.5607 10.8565 29.3333 12.7218 29.3333 14.6667C29.3333 16.6116 28.5607 18.4769 27.1855 19.8521C25.8102 21.2274 23.9449 22 22 22C20.0551 22 18.1898 21.2274 16.8146 19.8521C15.4393 18.4769 14.6667 16.6116 14.6667 14.6667C14.6667 12.7218 15.4393 10.8565 16.8146 9.48123C18.1898 8.10596 20.0551 7.33334 22 7.33334ZM22 25.6667C30.1033 25.6667 36.6667 28.9483 36.6667 33V36.6667H7.33334V33C7.33334 28.9483 13.8967 25.6667 22 25.6667Z" fill="#434343" fill-opacity="0.9"/>
</svg>
