<svg width="39" height="39" viewBox="0 0 39 39" fill="none" xmlns="http://www.w3.org/2000/svg">
<path fill-rule="evenodd" clip-rule="evenodd" d="M5.1545 8.4045C3.25 10.3074 3.25 13.3721 3.25 19.5C3.25 25.6279 3.25 28.6926 5.1545 30.5955C7.05737 32.5 10.1221 32.5 16.25 32.5H22.75C28.8779 32.5 31.9426 32.5 33.8455 30.5955C35.75 28.6926 35.75 25.6279 35.75 19.5C35.75 13.3721 35.75 10.3074 33.8455 8.4045C31.9426 6.5 28.8779 6.5 22.75 6.5H16.25C10.1221 6.5 7.05737 6.5 5.1545 8.4045ZM20.7188 16.25C20.7188 15.9268 20.5903 15.6168 20.3618 15.3882C20.1332 15.1597 19.8232 15.0313 19.5 15.0313C19.1768 15.0313 18.8668 15.1597 18.6382 15.3882C18.4097 15.6168 18.2812 15.9268 18.2812 16.25V17.3891L17.2949 16.8204C17.016 16.6719 16.6904 16.6375 16.3867 16.7244C16.0829 16.8113 15.8248 17.0128 15.6668 17.2864C15.5087 17.5599 15.4631 17.8841 15.5394 18.1907C15.6158 18.4973 15.8082 18.7622 16.0761 18.9296L17.0625 19.4984L16.0761 20.0688C15.796 20.2304 15.5915 20.4966 15.5077 20.809C15.4239 21.1214 15.4676 21.4542 15.6292 21.7344C15.7909 22.0145 16.0571 22.219 16.3695 22.3028C16.6819 22.3866 17.0147 22.3429 17.2949 22.1813L18.2812 21.6109V22.75C18.2812 23.0732 18.4097 23.3832 18.6382 23.6118C18.8668 23.8403 19.1768 23.9688 19.5 23.9688C19.8232 23.9688 20.1332 23.8403 20.3618 23.6118C20.5903 23.3832 20.7188 23.0732 20.7188 22.75V21.6125L21.7051 22.1813C21.9853 22.3429 22.3181 22.3866 22.6305 22.3028C22.9429 22.219 23.2091 22.0145 23.3708 21.7344C23.5324 21.4542 23.5761 21.1214 23.4923 20.809C23.4085 20.4966 23.204 20.2304 22.9239 20.0688L21.9375 19.5L22.9239 18.9313C23.204 18.7696 23.4085 18.5034 23.4923 18.191C23.5761 17.8786 23.5324 17.5458 23.3708 17.2656C23.2091 16.9855 22.9429 16.781 22.6305 16.6972C22.3181 16.6134 21.9853 16.6571 21.7051 16.8188L20.7188 17.3875V16.25ZM10.9411 15.0313C11.2644 15.0313 11.5744 15.1597 11.8029 15.3882C12.0315 15.6168 12.1599 15.9268 12.1599 16.25V17.3875L13.1446 16.8188C13.4248 16.6571 13.7576 16.6134 14.07 16.6972C14.3824 16.781 14.6486 16.9855 14.8103 17.2656C14.9719 17.5458 15.0156 17.8786 14.9318 18.191C14.848 18.5034 14.6435 18.7696 14.3634 18.9313L13.377 19.5L14.3634 20.0688C14.5021 20.1488 14.6237 20.2553 14.7212 20.3824C14.8187 20.5094 14.8903 20.6543 14.9318 20.809C14.9733 20.9637 14.9839 21.125 14.963 21.2838C14.9422 21.4426 14.8903 21.5957 14.8103 21.7344C14.7302 21.8731 14.6237 21.9947 14.4967 22.0922C14.3696 22.1897 14.2247 22.2613 14.07 22.3028C13.9153 22.3443 13.754 22.3549 13.5952 22.334C13.4364 22.3132 13.2833 22.2613 13.1446 22.1813L12.1599 21.6125V22.75C12.1599 23.0732 12.0315 23.3832 11.8029 23.6118C11.5744 23.8403 11.2644 23.9688 10.9411 23.9688C10.6179 23.9688 10.3079 23.8403 10.0793 23.6118C9.85078 23.3832 9.72237 23.0732 9.72237 22.75V21.6109L8.73438 22.1796C8.45552 22.3281 8.1299 22.3625 7.82617 22.2756C7.52244 22.1887 7.26433 21.9872 7.10627 21.7136C6.94821 21.4401 6.90255 21.1159 6.97892 20.8093C7.05529 20.5027 7.24771 20.2378 7.51562 20.0704L8.502 19.5L7.51562 18.9313C7.37692 18.8512 7.25533 18.7447 7.1578 18.6177C7.06028 18.4906 6.98872 18.3457 6.94723 18.191C6.90573 18.0363 6.8951 17.875 6.91595 17.7162C6.93681 17.5574 6.98873 17.4043 7.06875 17.2656C7.14877 17.1269 7.25534 17.0053 7.38235 16.9078C7.50936 16.8103 7.65434 16.7387 7.80901 16.6972C7.96368 16.6557 8.12501 16.6451 8.28378 16.666C8.44255 16.6868 8.59567 16.7387 8.73438 16.8188L9.72237 17.3891V16.25C9.72237 15.9268 9.85078 15.6168 10.0793 15.3882C10.3079 15.1597 10.6179 15.0313 10.9411 15.0313ZM29.2792 16.25C29.2792 15.9268 29.1508 15.6168 28.9223 15.3882C28.6937 15.1597 28.3837 15.0313 28.0605 15.0313C27.7373 15.0313 27.4273 15.1597 27.1987 15.3882C26.9702 15.6168 26.8417 15.9268 26.8417 16.25V17.3891L25.8554 16.8204C25.5765 16.6719 25.2509 16.6375 24.9472 16.7244C24.6434 16.8113 24.3853 17.0128 24.2273 17.2864C24.0692 17.5599 24.0236 17.8841 24.0999 18.1907C24.1763 18.4973 24.3687 18.7622 24.6366 18.9296L25.623 19.4984L24.635 20.0688C24.3549 20.2304 24.1504 20.4966 24.0666 20.809C23.9828 21.1214 24.0265 21.4542 24.1881 21.7344C24.3497 22.0145 24.616 22.219 24.9284 22.3028C25.2408 22.3866 25.5736 22.3429 25.8538 22.1813L26.8417 21.6109V22.75C26.8417 23.0732 26.9702 23.3832 27.1987 23.6118C27.4273 23.8403 27.7373 23.9688 28.0605 23.9688C28.3837 23.9688 28.6937 23.8403 28.9223 23.6118C29.1508 23.3832 29.2792 23.0732 29.2792 22.75V21.6125L30.2656 22.1813C30.5458 22.3429 30.8786 22.3866 31.191 22.3028C31.5034 22.219 31.7696 22.0145 31.9312 21.7344C32.0929 21.4542 32.1366 21.1214 32.0528 20.809C31.969 20.4966 31.7645 20.2304 31.4844 20.0688L30.498 19.5L31.4844 18.9313C31.7645 18.7696 31.969 18.5034 32.0528 18.191C32.1366 17.8786 32.0929 17.5458 31.9312 17.2656C31.7696 16.9855 31.5034 16.781 31.191 16.6972C30.8786 16.6134 30.5458 16.6571 30.2656 16.8188L29.2792 17.3875V16.25Z" fill="#434343" fill-opacity="0.9"/>
</svg>
