<svg width="63" height="63" viewBox="0 0 63 63" fill="none" xmlns="http://www.w3.org/2000/svg">
<path d="M57.0938 27.5625C57.6159 27.5625 58.1167 27.3551 58.4859 26.9859C58.8551 26.6167 59.0625 26.1159 59.0625 25.5938V15.75C59.0625 14.7057 58.6477 13.7042 57.9092 12.9658C57.1708 12.2273 56.1693 11.8125 55.125 11.8125H7.875C6.83071 11.8125 5.82919 12.2273 5.09077 12.9658C4.35234 13.7042 3.9375 14.7057 3.9375 15.75V25.5938C3.9375 26.1159 4.14492 26.6167 4.51413 26.9859C4.88335 27.3551 5.3841 27.5625 5.90625 27.5625C6.95054 27.5625 7.95206 27.9773 8.69048 28.7158C9.42891 29.4542 9.84375 30.4557 9.84375 31.5C9.84375 32.5443 9.42891 33.5458 8.69048 34.2842C7.95206 35.0227 6.95054 35.4375 5.90625 35.4375C5.3841 35.4375 4.88335 35.6449 4.51413 36.0141C4.14492 36.3833 3.9375 36.8841 3.9375 37.4062V47.25C3.9375 48.2943 4.35234 49.2958 5.09077 50.0342C5.82919 50.7727 6.83071 51.1875 7.875 51.1875H55.125C56.1693 51.1875 57.1708 50.7727 57.9092 50.0342C58.6477 49.2958 59.0625 48.2943 59.0625 47.25V37.4062C59.0625 36.8841 58.8551 36.3833 58.4859 36.0141C58.1167 35.6449 57.6159 35.4375 57.0938 35.4375C56.0495 35.4375 55.0479 35.0227 54.3095 34.2842C53.5711 33.5458 53.1562 32.5443 53.1562 31.5C53.1562 30.4557 53.5711 29.4542 54.3095 28.7158C55.0479 27.9773 56.0495 27.5625 57.0938 27.5625ZM55.125 39.1191V47.25H41.3438V41.3438H37.4062V47.25H7.875V39.1191C9.56024 38.6786 11.0519 37.6918 12.1165 36.3132C13.1811 34.9346 13.7586 33.2419 13.7586 31.5C13.7586 29.7581 13.1811 28.0654 12.1165 26.6868C11.0519 25.3082 9.56024 24.3214 7.875 23.8809V15.75H37.4062V21.6562H41.3438V15.75H55.125V23.8809C53.4398 24.3214 51.9481 25.3082 50.8835 26.6868C49.8189 28.0654 49.2414 29.7581 49.2414 31.5C49.2414 33.2419 49.8189 34.9346 50.8835 36.3132C51.9481 37.6918 53.4398 38.6786 55.125 39.1191Z" fill="white"/>
<path d="M37.4062 25.5938H41.3438V37.4062H37.4062V25.5938Z" fill="white"/>
</svg>
